<mxfile host="app.diagrams.net" modified="2022-06-09T07:59:05.144Z" agent="5.0 (X11)" etag="gnABhdRNi3hve9gv3N5f" version="19.0.3" type="github">
  <diagram id="R2lEEEUBdFMjLlhIrx00" name="Page-1">
    <mxGraphModel dx="2433" dy="1713" grid="1" gridSize="10" guides="1" tooltips="1" connect="1" arrows="1" fold="1" page="1" pageScale="1" pageWidth="850" pageHeight="1100" math="0" shadow="0" extFonts="Permanent Marker^https://fonts.googleapis.com/css?family=Permanent+Marker">
      <root>
        <mxCell id="0" />
        <mxCell id="1" parent="0" />
        <mxCell id="W--p_E4DD3Ripk5Ag2b6-2" value="Bonifico" style="shape=ext;margin=3;double=1;whiteSpace=wrap;html=1;align=center;fontFamily=Helvetica;fontSize=12;fontColor=default;strokeColor=default;fillColor=default;" vertex="1" parent="1">
          <mxGeometry x="670" y="460" width="100" height="40" as="geometry" />
        </mxCell>
        <mxCell id="W--p_E4DD3Ripk5Ag2b6-42" style="edgeStyle=orthogonalEdgeStyle;rounded=0;orthogonalLoop=1;jettySize=auto;html=1;exitX=1;exitY=0;exitDx=0;exitDy=0;entryX=0;entryY=0.5;entryDx=0;entryDy=0;" edge="1" parent="1" source="W--p_E4DD3Ripk5Ag2b6-4" target="W--p_E4DD3Ripk5Ag2b6-32">
          <mxGeometry relative="1" as="geometry" />
        </mxCell>
        <mxCell id="W--p_E4DD3Ripk5Ag2b6-45" style="edgeStyle=orthogonalEdgeStyle;rounded=0;orthogonalLoop=1;jettySize=auto;html=1;exitX=1;exitY=1;exitDx=0;exitDy=0;entryX=0;entryY=0.5;entryDx=0;entryDy=0;" edge="1" parent="1" source="W--p_E4DD3Ripk5Ag2b6-4" target="W--p_E4DD3Ripk5Ag2b6-31">
          <mxGeometry relative="1" as="geometry" />
        </mxCell>
        <mxCell id="W--p_E4DD3Ripk5Ag2b6-46" style="edgeStyle=orthogonalEdgeStyle;rounded=0;orthogonalLoop=1;jettySize=auto;html=1;exitX=0.5;exitY=1;exitDx=0;exitDy=0;entryX=0.5;entryY=0;entryDx=0;entryDy=0;" edge="1" parent="1" source="W--p_E4DD3Ripk5Ag2b6-4" target="W--p_E4DD3Ripk5Ag2b6-21">
          <mxGeometry relative="1" as="geometry">
            <mxPoint x="410" y="70" as="targetPoint" />
          </mxGeometry>
        </mxCell>
        <mxCell id="W--p_E4DD3Ripk5Ag2b6-50" style="edgeStyle=orthogonalEdgeStyle;rounded=0;orthogonalLoop=1;jettySize=auto;html=1;exitX=0;exitY=0.5;exitDx=0;exitDy=0;entryX=1;entryY=0.5;entryDx=0;entryDy=0;" edge="1" parent="1" source="W--p_E4DD3Ripk5Ag2b6-4" target="W--p_E4DD3Ripk5Ag2b6-19">
          <mxGeometry relative="1" as="geometry" />
        </mxCell>
        <mxCell id="W--p_E4DD3Ripk5Ag2b6-52" style="edgeStyle=orthogonalEdgeStyle;rounded=0;orthogonalLoop=1;jettySize=auto;html=1;exitX=0;exitY=0;exitDx=0;exitDy=0;entryX=1;entryY=0.5;entryDx=0;entryDy=0;" edge="1" parent="1" source="W--p_E4DD3Ripk5Ag2b6-4" target="W--p_E4DD3Ripk5Ag2b6-20">
          <mxGeometry relative="1" as="geometry" />
        </mxCell>
        <mxCell id="W--p_E4DD3Ripk5Ag2b6-4" value="Utente" style="whiteSpace=wrap;html=1;align=center;" vertex="1" parent="1">
          <mxGeometry x="360" y="-70" width="100" height="40" as="geometry" />
        </mxCell>
        <mxCell id="W--p_E4DD3Ripk5Ag2b6-68" style="edgeStyle=orthogonalEdgeStyle;rounded=0;orthogonalLoop=1;jettySize=auto;html=1;exitX=0.25;exitY=1;exitDx=0;exitDy=0;entryX=0.5;entryY=0;entryDx=0;entryDy=0;" edge="1" parent="1" source="W--p_E4DD3Ripk5Ag2b6-5" target="W--p_E4DD3Ripk5Ag2b6-26">
          <mxGeometry relative="1" as="geometry" />
        </mxCell>
        <mxCell id="W--p_E4DD3Ripk5Ag2b6-69" style="edgeStyle=orthogonalEdgeStyle;rounded=0;orthogonalLoop=1;jettySize=auto;html=1;exitX=0.75;exitY=1;exitDx=0;exitDy=0;" edge="1" parent="1" source="W--p_E4DD3Ripk5Ag2b6-5" target="W--p_E4DD3Ripk5Ag2b6-27">
          <mxGeometry relative="1" as="geometry" />
        </mxCell>
        <mxCell id="W--p_E4DD3Ripk5Ag2b6-73" style="edgeStyle=orthogonalEdgeStyle;rounded=0;orthogonalLoop=1;jettySize=auto;html=1;exitX=1;exitY=0.5;exitDx=0;exitDy=0;entryX=0;entryY=0.5;entryDx=0;entryDy=0;" edge="1" parent="1" source="W--p_E4DD3Ripk5Ag2b6-5" target="W--p_E4DD3Ripk5Ag2b6-72">
          <mxGeometry relative="1" as="geometry" />
        </mxCell>
        <mxCell id="W--p_E4DD3Ripk5Ag2b6-5" value="Ordine" style="whiteSpace=wrap;html=1;align=center;" vertex="1" parent="1">
          <mxGeometry x="360" y="210" width="100" height="40" as="geometry" />
        </mxCell>
        <mxCell id="W--p_E4DD3Ripk5Ag2b6-78" style="edgeStyle=orthogonalEdgeStyle;rounded=0;orthogonalLoop=1;jettySize=auto;html=1;exitX=0.5;exitY=1;exitDx=0;exitDy=0;entryX=0.5;entryY=0;entryDx=0;entryDy=0;" edge="1" parent="1" source="W--p_E4DD3Ripk5Ag2b6-6" target="W--p_E4DD3Ripk5Ag2b6-30">
          <mxGeometry relative="1" as="geometry" />
        </mxCell>
        <mxCell id="W--p_E4DD3Ripk5Ag2b6-82" style="edgeStyle=orthogonalEdgeStyle;rounded=0;orthogonalLoop=1;jettySize=auto;html=1;exitX=1;exitY=0.5;exitDx=0;exitDy=0;entryX=0;entryY=0.5;entryDx=0;entryDy=0;" edge="1" parent="1" source="W--p_E4DD3Ripk5Ag2b6-6" target="W--p_E4DD3Ripk5Ag2b6-25">
          <mxGeometry relative="1" as="geometry" />
        </mxCell>
        <mxCell id="W--p_E4DD3Ripk5Ag2b6-84" style="edgeStyle=orthogonalEdgeStyle;rounded=0;orthogonalLoop=1;jettySize=auto;html=1;exitX=0.75;exitY=1;exitDx=0;exitDy=0;entryX=0;entryY=0.5;entryDx=0;entryDy=0;" edge="1" parent="1" source="W--p_E4DD3Ripk5Ag2b6-6" target="W--p_E4DD3Ripk5Ag2b6-29">
          <mxGeometry relative="1" as="geometry" />
        </mxCell>
        <mxCell id="W--p_E4DD3Ripk5Ag2b6-85" style="edgeStyle=orthogonalEdgeStyle;rounded=0;orthogonalLoop=1;jettySize=auto;html=1;exitX=0.25;exitY=1;exitDx=0;exitDy=0;entryX=1;entryY=0.5;entryDx=0;entryDy=0;" edge="1" parent="1" source="W--p_E4DD3Ripk5Ag2b6-6" target="W--p_E4DD3Ripk5Ag2b6-28">
          <mxGeometry relative="1" as="geometry" />
        </mxCell>
        <mxCell id="W--p_E4DD3Ripk5Ag2b6-6" value="Pagamento" style="whiteSpace=wrap;html=1;align=center;" vertex="1" parent="1">
          <mxGeometry x="800" y="210" width="100" height="40" as="geometry" />
        </mxCell>
        <mxCell id="W--p_E4DD3Ripk5Ag2b6-7" value="Standard" style="whiteSpace=wrap;html=1;align=center;" vertex="1" parent="1">
          <mxGeometry x="460" y="430" width="100" height="40" as="geometry" />
        </mxCell>
        <mxCell id="W--p_E4DD3Ripk5Ag2b6-8" value="Rubrica Indirizzi" style="whiteSpace=wrap;html=1;align=center;" vertex="1" parent="1">
          <mxGeometry x="840" width="100" height="40" as="geometry" />
        </mxCell>
        <mxCell id="W--p_E4DD3Ripk5Ag2b6-9" value="Veloce" style="whiteSpace=wrap;html=1;align=center;" vertex="1" parent="1">
          <mxGeometry x="260" y="430" width="100" height="40" as="geometry" />
        </mxCell>
        <mxCell id="W--p_E4DD3Ripk5Ag2b6-58" value="" style="edgeStyle=orthogonalEdgeStyle;rounded=0;orthogonalLoop=1;jettySize=auto;html=1;" edge="1" parent="1" source="W--p_E4DD3Ripk5Ag2b6-10" target="W--p_E4DD3Ripk5Ag2b6-22">
          <mxGeometry relative="1" as="geometry" />
        </mxCell>
        <mxCell id="W--p_E4DD3Ripk5Ag2b6-66" style="edgeStyle=orthogonalEdgeStyle;rounded=0;orthogonalLoop=1;jettySize=auto;html=1;exitX=1;exitY=0.5;exitDx=0;exitDy=0;entryX=0;entryY=0.5;entryDx=0;entryDy=0;" edge="1" parent="1" source="W--p_E4DD3Ripk5Ag2b6-10" target="W--p_E4DD3Ripk5Ag2b6-24">
          <mxGeometry relative="1" as="geometry" />
        </mxCell>
        <mxCell id="W--p_E4DD3Ripk5Ag2b6-10" value="Articoli" style="whiteSpace=wrap;html=1;align=center;" vertex="1" parent="1">
          <mxGeometry x="-280" y="210" width="100" height="40" as="geometry" />
        </mxCell>
        <mxCell id="W--p_E4DD3Ripk5Ag2b6-11" value="Dati Anagrafici" style="shape=ext;margin=3;double=1;whiteSpace=wrap;html=1;align=center;fontFamily=Helvetica;fontSize=12;fontColor=default;strokeColor=default;fillColor=default;" vertex="1" parent="1">
          <mxGeometry x="840" y="-120" width="100" height="40" as="geometry" />
        </mxCell>
        <mxCell id="W--p_E4DD3Ripk5Ag2b6-12" value="Carta" style="shape=ext;margin=3;double=1;whiteSpace=wrap;html=1;align=center;fontFamily=Helvetica;fontSize=12;fontColor=default;strokeColor=default;fillColor=default;" vertex="1" parent="1">
          <mxGeometry x="1050" y="450" width="100" height="40" as="geometry" />
        </mxCell>
        <mxCell id="W--p_E4DD3Ripk5Ag2b6-63" style="edgeStyle=orthogonalEdgeStyle;rounded=0;orthogonalLoop=1;jettySize=auto;html=1;exitX=0;exitY=0.5;exitDx=0;exitDy=0;" edge="1" parent="1" source="W--p_E4DD3Ripk5Ag2b6-13" target="W--p_E4DD3Ripk5Ag2b6-61">
          <mxGeometry relative="1" as="geometry" />
        </mxCell>
        <mxCell id="W--p_E4DD3Ripk5Ag2b6-13" value="Recensione" style="shape=ext;margin=3;double=1;whiteSpace=wrap;html=1;align=center;fontFamily=Helvetica;fontSize=12;fontColor=default;strokeColor=default;fillColor=default;" vertex="1" parent="1">
          <mxGeometry x="-30" y="-10" width="100" height="40" as="geometry" />
        </mxCell>
        <mxCell id="W--p_E4DD3Ripk5Ag2b6-14" value="Contanti" style="shape=ext;margin=3;double=1;whiteSpace=wrap;html=1;align=center;fontFamily=Helvetica;fontSize=12;fontColor=default;strokeColor=default;fillColor=default;" vertex="1" parent="1">
          <mxGeometry x="1070" y="330" width="100" height="40" as="geometry" />
        </mxCell>
        <mxCell id="W--p_E4DD3Ripk5Ag2b6-16" value="Fornitore" style="whiteSpace=wrap;html=1;align=center;" vertex="1" parent="1">
          <mxGeometry x="-280" y="510" width="100" height="40" as="geometry" />
        </mxCell>
        <mxCell id="W--p_E4DD3Ripk5Ag2b6-56" style="edgeStyle=orthogonalEdgeStyle;rounded=0;orthogonalLoop=1;jettySize=auto;html=1;exitX=0;exitY=0.5;exitDx=0;exitDy=0;" edge="1" parent="1" source="W--p_E4DD3Ripk5Ag2b6-17" target="W--p_E4DD3Ripk5Ag2b6-23">
          <mxGeometry relative="1" as="geometry" />
        </mxCell>
        <mxCell id="W--p_E4DD3Ripk5Ag2b6-87" value="" style="edgeStyle=orthogonalEdgeStyle;rounded=0;orthogonalLoop=1;jettySize=auto;html=1;" edge="1" parent="1" source="W--p_E4DD3Ripk5Ag2b6-17">
          <mxGeometry relative="1" as="geometry">
            <mxPoint x="-20" y="-160" as="targetPoint" />
          </mxGeometry>
        </mxCell>
        <mxCell id="W--p_E4DD3Ripk5Ag2b6-17" value="Catalogo" style="whiteSpace=wrap;html=1;align=center;" vertex="1" parent="1">
          <mxGeometry x="-70" y="-120" width="100" height="40" as="geometry" />
        </mxCell>
        <mxCell id="W--p_E4DD3Ripk5Ag2b6-18" value="Fattura" style="whiteSpace=wrap;html=1;align=center;" vertex="1" parent="1">
          <mxGeometry x="1440" y="210" width="100" height="40" as="geometry" />
        </mxCell>
        <mxCell id="W--p_E4DD3Ripk5Ag2b6-53" style="edgeStyle=orthogonalEdgeStyle;rounded=0;orthogonalLoop=1;jettySize=auto;html=1;exitX=0;exitY=0.5;exitDx=0;exitDy=0;entryX=1;entryY=0.5;entryDx=0;entryDy=0;" edge="1" parent="1" source="W--p_E4DD3Ripk5Ag2b6-19" target="W--p_E4DD3Ripk5Ag2b6-13">
          <mxGeometry relative="1" as="geometry" />
        </mxCell>
        <mxCell id="W--p_E4DD3Ripk5Ag2b6-19" value="Recensisce" style="shape=rhombus;perimeter=rhombusPerimeter;whiteSpace=wrap;html=1;align=center;" vertex="1" parent="1">
          <mxGeometry x="160" y="-20" width="120" height="60" as="geometry" />
        </mxCell>
        <mxCell id="W--p_E4DD3Ripk5Ag2b6-55" style="edgeStyle=orthogonalEdgeStyle;rounded=0;orthogonalLoop=1;jettySize=auto;html=1;exitX=0;exitY=0.5;exitDx=0;exitDy=0;entryX=1;entryY=0.5;entryDx=0;entryDy=0;" edge="1" parent="1" source="W--p_E4DD3Ripk5Ag2b6-20" target="W--p_E4DD3Ripk5Ag2b6-17">
          <mxGeometry relative="1" as="geometry" />
        </mxCell>
        <mxCell id="W--p_E4DD3Ripk5Ag2b6-20" value="Visualizza" style="shape=rhombus;perimeter=rhombusPerimeter;whiteSpace=wrap;html=1;align=center;" vertex="1" parent="1">
          <mxGeometry x="170" y="-130" width="120" height="60" as="geometry" />
        </mxCell>
        <mxCell id="W--p_E4DD3Ripk5Ag2b6-47" style="edgeStyle=orthogonalEdgeStyle;rounded=0;orthogonalLoop=1;jettySize=auto;html=1;exitX=0.5;exitY=1;exitDx=0;exitDy=0;entryX=0.5;entryY=0;entryDx=0;entryDy=0;" edge="1" parent="1" source="W--p_E4DD3Ripk5Ag2b6-21" target="W--p_E4DD3Ripk5Ag2b6-5">
          <mxGeometry relative="1" as="geometry" />
        </mxCell>
        <mxCell id="W--p_E4DD3Ripk5Ag2b6-21" value="Effettua" style="shape=rhombus;perimeter=rhombusPerimeter;whiteSpace=wrap;html=1;align=center;" vertex="1" parent="1">
          <mxGeometry x="350" y="60" width="120" height="60" as="geometry" />
        </mxCell>
        <mxCell id="W--p_E4DD3Ripk5Ag2b6-60" style="edgeStyle=orthogonalEdgeStyle;rounded=0;orthogonalLoop=1;jettySize=auto;html=1;exitX=0.5;exitY=1;exitDx=0;exitDy=0;entryX=0.5;entryY=0;entryDx=0;entryDy=0;" edge="1" parent="1" source="W--p_E4DD3Ripk5Ag2b6-22" target="W--p_E4DD3Ripk5Ag2b6-16">
          <mxGeometry relative="1" as="geometry" />
        </mxCell>
        <mxCell id="W--p_E4DD3Ripk5Ag2b6-22" value="Sono forniti da" style="shape=rhombus;perimeter=rhombusPerimeter;whiteSpace=wrap;html=1;align=center;" vertex="1" parent="1">
          <mxGeometry x="-290" y="330" width="120" height="60" as="geometry" />
        </mxCell>
        <mxCell id="W--p_E4DD3Ripk5Ag2b6-57" style="edgeStyle=orthogonalEdgeStyle;rounded=0;orthogonalLoop=1;jettySize=auto;html=1;exitX=0.5;exitY=1;exitDx=0;exitDy=0;" edge="1" parent="1" source="W--p_E4DD3Ripk5Ag2b6-23" target="W--p_E4DD3Ripk5Ag2b6-10">
          <mxGeometry relative="1" as="geometry" />
        </mxCell>
        <mxCell id="W--p_E4DD3Ripk5Ag2b6-23" value="Contiene" style="shape=rhombus;perimeter=rhombusPerimeter;whiteSpace=wrap;html=1;align=center;" vertex="1" parent="1">
          <mxGeometry x="-290" y="-50" width="120" height="60" as="geometry" />
        </mxCell>
        <mxCell id="W--p_E4DD3Ripk5Ag2b6-67" style="edgeStyle=orthogonalEdgeStyle;rounded=0;orthogonalLoop=1;jettySize=auto;html=1;exitX=1;exitY=0.5;exitDx=0;exitDy=0;entryX=0;entryY=0.5;entryDx=0;entryDy=0;" edge="1" parent="1" source="W--p_E4DD3Ripk5Ag2b6-24" target="W--p_E4DD3Ripk5Ag2b6-5">
          <mxGeometry relative="1" as="geometry" />
        </mxCell>
        <mxCell id="W--p_E4DD3Ripk5Ag2b6-24" value="Compongono" style="shape=rhombus;perimeter=rhombusPerimeter;whiteSpace=wrap;html=1;align=center;" vertex="1" parent="1">
          <mxGeometry x="70" y="200" width="120" height="60" as="geometry" />
        </mxCell>
        <mxCell id="W--p_E4DD3Ripk5Ag2b6-83" style="edgeStyle=orthogonalEdgeStyle;rounded=0;orthogonalLoop=1;jettySize=auto;html=1;exitX=1;exitY=0.5;exitDx=0;exitDy=0;entryX=0;entryY=0.5;entryDx=0;entryDy=0;" edge="1" parent="1" source="W--p_E4DD3Ripk5Ag2b6-25" target="W--p_E4DD3Ripk5Ag2b6-18">
          <mxGeometry relative="1" as="geometry" />
        </mxCell>
        <mxCell id="W--p_E4DD3Ripk5Ag2b6-25" value="Rilascia" style="shape=rhombus;perimeter=rhombusPerimeter;whiteSpace=wrap;html=1;align=center;" vertex="1" parent="1">
          <mxGeometry x="1130" y="200" width="120" height="60" as="geometry" />
        </mxCell>
        <mxCell id="W--p_E4DD3Ripk5Ag2b6-70" style="edgeStyle=orthogonalEdgeStyle;rounded=0;orthogonalLoop=1;jettySize=auto;html=1;exitX=0.5;exitY=1;exitDx=0;exitDy=0;entryX=0.5;entryY=0;entryDx=0;entryDy=0;" edge="1" parent="1" source="W--p_E4DD3Ripk5Ag2b6-26" target="W--p_E4DD3Ripk5Ag2b6-9">
          <mxGeometry relative="1" as="geometry" />
        </mxCell>
        <mxCell id="W--p_E4DD3Ripk5Ag2b6-26" value="Consegna" style="shape=rhombus;perimeter=rhombusPerimeter;whiteSpace=wrap;html=1;align=center;" vertex="1" parent="1">
          <mxGeometry x="250" y="300" width="120" height="60" as="geometry" />
        </mxCell>
        <mxCell id="W--p_E4DD3Ripk5Ag2b6-71" value="" style="edgeStyle=orthogonalEdgeStyle;rounded=0;orthogonalLoop=1;jettySize=auto;html=1;" edge="1" parent="1" source="W--p_E4DD3Ripk5Ag2b6-27" target="W--p_E4DD3Ripk5Ag2b6-7">
          <mxGeometry relative="1" as="geometry" />
        </mxCell>
        <mxCell id="W--p_E4DD3Ripk5Ag2b6-27" value="Consegna" style="shape=rhombus;perimeter=rhombusPerimeter;whiteSpace=wrap;html=1;align=center;" vertex="1" parent="1">
          <mxGeometry x="450" y="300" width="120" height="60" as="geometry" />
        </mxCell>
        <mxCell id="W--p_E4DD3Ripk5Ag2b6-81" value="" style="edgeStyle=orthogonalEdgeStyle;rounded=0;orthogonalLoop=1;jettySize=auto;html=1;" edge="1" parent="1" source="W--p_E4DD3Ripk5Ag2b6-28" target="W--p_E4DD3Ripk5Ag2b6-2">
          <mxGeometry relative="1" as="geometry" />
        </mxCell>
        <mxCell id="W--p_E4DD3Ripk5Ag2b6-28" value="Conj" style="shape=rhombus;perimeter=rhombusPerimeter;whiteSpace=wrap;html=1;align=center;" vertex="1" parent="1">
          <mxGeometry x="660" y="320" width="120" height="60" as="geometry" />
        </mxCell>
        <mxCell id="W--p_E4DD3Ripk5Ag2b6-79" value="" style="edgeStyle=orthogonalEdgeStyle;rounded=0;orthogonalLoop=1;jettySize=auto;html=1;" edge="1" parent="1" source="W--p_E4DD3Ripk5Ag2b6-29" target="W--p_E4DD3Ripk5Ag2b6-14">
          <mxGeometry relative="1" as="geometry" />
        </mxCell>
        <mxCell id="W--p_E4DD3Ripk5Ag2b6-29" value="Con" style="shape=rhombus;perimeter=rhombusPerimeter;whiteSpace=wrap;html=1;align=center;" vertex="1" parent="1">
          <mxGeometry x="900" y="320" width="120" height="60" as="geometry" />
        </mxCell>
        <mxCell id="W--p_E4DD3Ripk5Ag2b6-80" style="edgeStyle=orthogonalEdgeStyle;rounded=0;orthogonalLoop=1;jettySize=auto;html=1;exitX=1;exitY=0.5;exitDx=0;exitDy=0;entryX=0;entryY=0.5;entryDx=0;entryDy=0;" edge="1" parent="1" source="W--p_E4DD3Ripk5Ag2b6-30" target="W--p_E4DD3Ripk5Ag2b6-12">
          <mxGeometry relative="1" as="geometry" />
        </mxCell>
        <mxCell id="W--p_E4DD3Ripk5Ag2b6-30" value="Con" style="shape=rhombus;perimeter=rhombusPerimeter;whiteSpace=wrap;html=1;align=center;" vertex="1" parent="1">
          <mxGeometry x="790" y="440" width="120" height="60" as="geometry" />
        </mxCell>
        <mxCell id="W--p_E4DD3Ripk5Ag2b6-44" style="edgeStyle=orthogonalEdgeStyle;rounded=0;orthogonalLoop=1;jettySize=auto;html=1;exitX=1;exitY=0.5;exitDx=0;exitDy=0;" edge="1" parent="1" source="W--p_E4DD3Ripk5Ag2b6-31" target="W--p_E4DD3Ripk5Ag2b6-8">
          <mxGeometry relative="1" as="geometry" />
        </mxCell>
        <mxCell id="W--p_E4DD3Ripk5Ag2b6-31" value="Indirizzi" style="shape=rhombus;perimeter=rhombusPerimeter;whiteSpace=wrap;html=1;align=center;" vertex="1" parent="1">
          <mxGeometry x="600" y="-10" width="120" height="60" as="geometry" />
        </mxCell>
        <mxCell id="W--p_E4DD3Ripk5Ag2b6-43" style="edgeStyle=orthogonalEdgeStyle;rounded=0;orthogonalLoop=1;jettySize=auto;html=1;exitX=1;exitY=0.5;exitDx=0;exitDy=0;entryX=0;entryY=0.5;entryDx=0;entryDy=0;" edge="1" parent="1" source="W--p_E4DD3Ripk5Ag2b6-32" target="W--p_E4DD3Ripk5Ag2b6-11">
          <mxGeometry relative="1" as="geometry" />
        </mxCell>
        <mxCell id="W--p_E4DD3Ripk5Ag2b6-32" value="Anagrafica" style="shape=rhombus;perimeter=rhombusPerimeter;whiteSpace=wrap;html=1;align=center;" vertex="1" parent="1">
          <mxGeometry x="600" y="-130" width="120" height="60" as="geometry" />
        </mxCell>
        <mxCell id="W--p_E4DD3Ripk5Ag2b6-64" style="edgeStyle=orthogonalEdgeStyle;rounded=0;orthogonalLoop=1;jettySize=auto;html=1;exitX=0.5;exitY=1;exitDx=0;exitDy=0;entryX=0.75;entryY=0;entryDx=0;entryDy=0;" edge="1" parent="1" source="W--p_E4DD3Ripk5Ag2b6-61" target="W--p_E4DD3Ripk5Ag2b6-10">
          <mxGeometry relative="1" as="geometry" />
        </mxCell>
        <mxCell id="W--p_E4DD3Ripk5Ag2b6-61" value="Recensito" style="shape=rhombus;perimeter=rhombusPerimeter;whiteSpace=wrap;html=1;align=center;" vertex="1" parent="1">
          <mxGeometry x="-150" y="90" width="120" height="60" as="geometry" />
        </mxCell>
        <mxCell id="W--p_E4DD3Ripk5Ag2b6-74" style="edgeStyle=orthogonalEdgeStyle;rounded=0;orthogonalLoop=1;jettySize=auto;html=1;exitX=1;exitY=0.5;exitDx=0;exitDy=0;entryX=0;entryY=0.5;entryDx=0;entryDy=0;" edge="1" parent="1" source="W--p_E4DD3Ripk5Ag2b6-72" target="W--p_E4DD3Ripk5Ag2b6-6">
          <mxGeometry relative="1" as="geometry" />
        </mxCell>
        <mxCell id="W--p_E4DD3Ripk5Ag2b6-72" value="Pagamento Ordine" style="shape=rhombus;perimeter=rhombusPerimeter;whiteSpace=wrap;html=1;align=center;" vertex="1" parent="1">
          <mxGeometry x="550" y="200" width="120" height="60" as="geometry" />
        </mxCell>
      </root>
    </mxGraphModel>
  </diagram>
</mxfile>
